<svg xmlns="http://www.w3.org/2000/svg" width="501" height="501" viewBox="0 0 501 501">
<g>
<path d="M 464.20 366.02 L 464.50 451.50 L 231.00 452.01 L 231.00 309.10 L 223.06 304.97 C210.99,298.69 206.38,291.04 205.33,275.58 L 204.79 267.50 L 213.83 264.15 C237.54,255.39 256.05,236.38 264.62,212.00 C266.83,205.70 267.03,205.48 270.82,204.95 C275.46,204.30 278.80,202.26 283.24,197.39 C288.02,192.13 292.00,183.49 292.00,178.36 C292.00,173.50 288.68,165.61 284.91,161.52 C281.19,157.49 275.56,154.11 274.43,155.23 C274.15,155.51 273.47,159.87 272.90,164.92 C272.34,169.98 271.50,176.00 271.05,178.30 C270.22,182.49 270.22,182.49 270.10,176.50 C269.97,169.26 266.36,144.08 264.92,140.30 C264.36,138.81 259.34,133.29 253.77,128.05 C242.76,117.67 235.18,107.22 232.50,98.74 C231.59,95.86 230.63,92.83 230.36,92.01 C230.05,91.06 228.81,92.38 226.87,95.74 C223.52,101.55 212.91,111.77 206.62,115.26 C191.11,123.85 180.58,126.53 154.64,128.48 C143.53,129.31 131.79,130.69 128.55,131.53 C115.72,134.87 104.53,144.54 101.04,155.31 C99.90,158.82 99.58,159.07 96.91,158.48 C90.24,157.01 81.39,163.62 78.90,171.94 C78.23,174.17 77.35,176.00 76.95,176.00 C75.36,176.00 72.78,157.70 72.28,142.92 C71.87,130.98 72.14,125.02 73.42,117.42 C77.90,90.88 89.86,69.15 108.15,54.33 C122.31,42.87 137.51,35.56 157.00,30.83 C160.52,29.98 168.81,29.50 180.00,29.51 C195.27,29.52 198.52,29.81 205.49,31.82 C221.51,36.44 232.97,43.98 238.61,53.60 C240.65,57.07 242.01,58.19 245.24,59.06 C268.94,65.45 287.72,92.28 291.60,125.28 L 292.28 131.00 L 438.09 131.00 L 440.55 133.45 L 443.00 135.91 L 443.09 192.70 C443.15,223.94 443.37,254.90 443.59,261.50 L 443.99 273.50 L 450.24 274.02 C456.80,274.56 459.40,275.58 462.21,278.68 C463.76,280.40 463.92,287.45 464.20,366.02 ZM 251.67 369.33 C252.03,369.70 295.46,370.00 348.17,370.00 L 444.00 370.00 L 444.00 295.00 L 251.00 295.00 L 251.00 331.83 C251.00,352.09 251.30,368.97 251.67,369.33 ZM 78.46 396.75 C75.27,408.44 72.29,418.00 71.84,418.00 C68.45,418.00 57.05,395.39 53.31,381.28 C51.06,372.78 50.71,369.34 50.61,355.00 C50.55,345.92 50.86,336.48 51.29,334.00 C52.49,327.21 50.37,331.32 47.83,340.72 C45.04,351.03 44.79,373.11 47.33,383.40 C48.27,387.19 48.85,390.48 48.62,390.71 C48.01,391.32 43.53,381.51 40.98,374.00 C34.12,353.77 34.40,325.91 41.67,305.68 C45.71,294.44 51.10,284.43 62.34,267.32 C80.02,240.40 83.45,231.62 84.66,210.25 C85.01,204.06 85.56,199.00 85.88,199.00 C86.20,199.00 88.73,200.08 91.48,201.41 C94.24,202.74 97.78,204.20 99.33,204.66 C101.75,205.38 102.64,206.75 105.39,214.00 C111.42,229.90 121.22,243.35 133.46,252.57 C141.23,258.41 155.20,265.41 161.39,266.56 L 165.27 267.27 L 164.67 274.43 C164.33,278.37 163.14,284.59 162.01,288.24 C159.18,297.39 153.63,302.20 138.61,308.49 C116.58,317.73 113.83,319.42 106.79,328.06 C98.44,338.30 86.55,367.13 78.46,396.75 ZM 315.67 441.33 C316.03,441.70 329.76,442.00 346.17,442.00 L 376.00 442.00 L 376.00 380.00 L 315.00 380.00 L 315.00 410.33 C315.00,427.02 315.30,440.97 315.67,441.33 ZM 383.67 441.33 C384.03,441.70 397.76,442.00 414.17,442.00 L 444.00 442.00 L 444.00 380.00 L 383.00 380.00 L 383.00 410.33 C383.00,427.02 383.30,440.97 383.67,441.33 ZM 251.67 441.33 C252.03,441.70 264.86,442.00 280.17,442.00 L 308.00 442.00 L 308.00 380.00 L 251.00 380.00 L 251.00 410.33 C251.00,427.02 251.30,440.97 251.67,441.33 ZM 305.03 385.00 L 304.50 436.50 L 280.25 436.77 L 256.00 437.04 L 256.00 385.00 ZM 432.39 316.42 C431.85,317.82 427.52,318.00 393.89,318.00 L 356.00 318.00 L 356.00 308.00 L 433.00 308.00 L 433.00 311.42 C433.00,313.30 432.73,315.55 432.39,316.42 ZM 289.35 351.35 C284.72,353.70 279.03,354.15 274.71,352.51 C265.18,348.90 261.05,342.85 261.04,332.50 C261.03,323.79 261.88,322.97 267.18,326.53 C269.55,328.13 273.62,331.17 276.22,333.29 L 280.94 337.14 L 289.32 332.57 C293.93,330.06 298.22,328.00 298.85,328.00 C300.78,328.00 300.25,338.59 298.11,342.79 C295.95,347.02 293.84,349.08 289.35,351.35 ZM 362.67 196.33 C363.03,196.70 368.16,197.00 374.06,197.00 C382.92,197.00 384.89,196.72 385.39,195.42 C385.73,194.55 386.00,190.08 386.00,185.49 C386.00,174.62 385.41,174.00 374.99,174.00 C370.67,174.00 365.98,174.44 364.57,174.98 C362.05,175.93 362.00,176.15 362.00,185.81 C362.00,191.23 362.30,195.97 362.67,196.33 ZM 398.90 201.25 L 399.95 204.00 L 422.00 204.00 L 422.00 182.00 L 411.06 182.00 C405.04,182.00 399.85,182.44 399.52,182.97 C398.33,184.90 397.86,198.55 398.90,201.25 ZM 130.51 457.75 C130.89,461.19 130.81,463.97 130.35,463.93 C128.73,463.79 117.46,457.48 113.74,454.63 C109.59,451.45 109.02,450.00 111.92,450.00 C111.96,450.00 111.99,450.00 112.03,450.00 C112.33,450.00 112.59,450.00 112.82,449.93 C114.08,449.51 114.59,446.80 118.07,429.20 C119.30,422.99 120.64,418.26 121.06,418.70 C123.27,421.02 129.15,445.32 130.51,457.75 ZM 148.29 178.98 C142.74,183.35 135.68,180.01 133.93,172.19 C133.36,169.66 131.83,166.84 130.23,165.37 C128.00,163.34 127.90,163.07 129.68,163.94 C134.21,166.14 135.73,163.88 132.00,160.50 C128.90,157.70 129.64,156.67 132.98,159.14 C135.52,161.02 136.33,161.17 138.52,160.17 C144.84,157.30 150.30,159.70 152.03,166.10 C153.38,171.14 151.94,176.12 148.29,178.98 ZM 230.46 180.38 C221.01,184.00 213.30,172.57 218.96,163.30 C221.48,159.16 226.98,157.88 231.38,160.41 C234.24,162.04 234.47,162.03 237.18,160.03 C238.73,158.88 240.00,158.39 240.00,158.95 C240.00,159.50 238.88,160.69 237.50,161.59 C233.17,164.43 234.62,167.35 239.15,164.92 C240.26,164.32 241.40,164.07 241.68,164.35 C241.96,164.62 240.79,165.57 239.09,166.45 C237.19,167.44 236.00,168.83 236.00,170.07 C236.00,172.92 232.39,179.64 230.46,180.38 ZM 327.00 305.00 L 327.00 320.00 L 311.00 320.00 L 311.00 305.00 ZM 126.50 144.98 C121.23,148.51 121.01,147.60 125.62,141.35 C129.60,135.96 141.00,133.48 150.14,136.02 C155.09,137.40 156.86,139.57 154.75,141.68 C153.37,143.06 152.16,143.11 145.13,142.08 C136.27,140.78 131.73,141.49 126.50,144.98 ZM 247.00 146.20 C247.00,147.47 245.72,147.13 242.53,145.03 C237.70,141.84 230.68,140.78 223.83,142.20 C217.28,143.55 214.50,142.71 214.50,139.39 C214.50,135.42 228.57,133.54 235.78,136.55 C239.40,138.05 247.00,144.60 247.00,146.20 ZM 413.24 152.91 C415.91,153.92 418.52,152.77 420.03,149.94 C421.45,147.29 420.43,144.33 417.42,142.36 C415.20,140.90 414.79,140.91 412.45,142.44 C411.04,143.36 409.63,144.79 409.31,145.62 C408.46,147.85 410.66,151.94 413.24,152.91 ZM 390.22 151.44 C391.44,152.30 393.14,153.00 394.00,153.00 C396.58,153.00 400.00,150.02 400.00,147.77 C400.00,144.81 397.16,142.00 394.17,142.00 C388.62,142.00 385.93,148.43 390.22,151.44 ZM 364.31 407.15 C359.98,407.52 324.80,407.46 324.42,407.08 C322.71,405.39 326.47,405.00 344.44,405.00 C356.99,405.00 365.12,405.39 365.50,406.00 C365.84,406.55 365.30,407.07 364.31,407.15 ZM 365.46 398.07 C364.72,399.26 325.31,399.30 324.57,398.12 C323.93,397.07 363.31,395.45 364.93,396.46 C365.54,396.83 365.77,397.56 365.46,398.07 ZM 434.00 406.50 C434.00,407.71 432.68,407.96 427.25,407.78 C423.54,407.66 414.54,407.42 407.25,407.25 C399.56,407.07 394.00,406.53 394.00,405.97 C394.00,405.38 401.73,405.00 414.00,405.00 C431.11,405.00 434.00,405.22 434.00,406.50 ZM 433.75 397.25 C433.44,398.18 428.86,398.54 415.92,398.64 C396.60,398.80 388.44,397.92 398.00,396.71 C401.02,396.33 410.40,396.01 418.83,396.01 C430.66,396.00 434.07,396.29 433.75,397.25 ZM 351.00 415.00 C351.00,415.62 345.83,416.00 337.50,416.00 C329.17,416.00 324.00,415.62 324.00,415.00 C324.00,414.38 329.17,414.00 337.50,414.00 C345.83,414.00 351.00,414.38 351.00,415.00 ZM 418.00 415.00 C418.00,415.61 413.35,416.00 406.06,416.00 C399.18,416.00 393.86,415.58 393.50,415.00 C393.10,414.35 397.32,414.00 405.44,414.00 C413.15,414.00 418.00,414.39 418.00,415.00 ZM 228.15 167.68 C230.06,169.99 233.50,168.91 233.50,166.00 C233.50,164.05 232.93,163.43 230.88,163.20 C227.85,162.84 226.28,165.42 228.15,167.68 ZM 136.42 168.54 C138.82,170.32 141.24,168.69 140.80,165.59 C140.43,162.98 137.14,162.81 135.61,165.31 C134.72,166.75 134.88,167.40 136.42,168.54 Z" fill="rgb(37,84,93)"/>
<path d="M 0.00 0.00 L 501.00 0.00 L 501.00 501.00 L 0.00 501.00 ZM 464.20 366.02 C463.92,287.45 463.76,280.40 462.21,278.68 C459.40,275.58 456.80,274.56 450.24,274.02 L 443.99 273.50 L 443.59 261.50 C443.37,254.90 443.15,223.94 443.09,192.70 L 443.00 135.91 L 440.55 133.45 L 438.09 131.00 L 292.28 131.00 L 291.60 125.28 C287.72,92.28 268.94,65.45 245.24,59.06 C242.01,58.19 240.65,57.07 238.61,53.60 C232.97,43.98 221.51,36.44 205.49,31.82 C198.52,29.81 195.27,29.52 180.00,29.51 C168.81,29.50 160.52,29.98 157.00,30.83 C137.51,35.56 122.31,42.87 108.15,54.33 C89.86,69.15 77.90,90.88 73.42,117.42 C72.14,125.02 71.87,130.98 72.28,142.92 C72.78,157.70 75.36,176.00 76.95,176.00 C77.35,176.00 78.23,174.17 78.90,171.94 C79.51,169.90 80.51,167.96 81.76,166.22 C80.89,167.45 80.14,168.79 79.55,170.22 C77.45,175.25 77.62,183.57 79.92,188.64 C82.60,194.54 86.29,198.62 91.87,201.59 C91.74,201.53 91.61,201.47 91.48,201.41 C88.73,200.08 86.20,199.00 85.88,199.00 C85.56,199.00 85.01,204.06 84.66,210.25 C83.45,231.62 80.02,240.40 62.34,267.32 C51.10,284.43 45.71,294.44 41.67,305.68 C34.40,325.91 34.12,353.77 40.98,374.00 C43.53,381.51 48.01,391.32 48.62,390.71 C48.85,390.48 48.27,387.19 47.33,383.40 C44.79,373.11 45.04,351.03 47.83,340.72 C50.37,331.32 52.49,327.21 51.29,334.00 C50.86,336.48 50.55,345.92 50.61,355.00 C50.71,369.34 51.06,372.78 53.31,381.28 C57.05,395.39 68.45,418.00 71.84,418.00 C72.29,418.00 75.27,408.44 78.46,396.75 C81.67,385.00 85.48,373.38 89.42,362.99 C85.49,373.50 81.61,385.55 78.05,398.50 C70.28,426.71 68.30,435.73 69.61,436.94 C70.10,437.40 73.88,438.79 78.00,440.03 C90.83,443.88 104.36,448.00 107.57,449.02 C109.01,449.48 110.10,449.91 110.97,450.07 C109.23,450.40 110.13,451.86 113.74,454.63 C117.46,457.48 128.73,463.79 130.35,463.93 C130.36,463.93 130.36,463.93 130.37,463.93 C130.39,465.54 130.41,467.26 130.41,469.11 L 130.41 485.72 L 136.96 486.94 C140.56,487.62 146.88,488.86 151.00,489.71 C155.12,490.56 160.52,491.62 163.00,492.07 C165.48,492.52 169.75,493.37 172.50,493.96 C175.25,494.55 180.20,495.48 183.50,496.03 C186.80,496.59 193.55,497.89 198.50,498.93 C206.29,500.56 211.99,500.82 241.00,500.81 C273.01,500.81 274.33,500.73 270.75,499.15 C267.47,497.70 266.75,496.72 264.90,491.19 C263.74,487.71 263.08,484.59 263.43,484.24 C263.78,483.89 307.36,483.58 360.28,483.55 C448.70,483.50 456.79,483.36 460.10,481.80 L 463.70 480.10 L 464.39 467.02 C464.77,459.82 464.81,453.50 464.48,452.97 C464.10,452.35 421.32,452.00 347.44,452.00 L 234.81 452.00 L 464.50 451.50 ZM 382.84 177.12 L 382.59 194.84 L 377.55 195.17 C374.77,195.35 370.70,195.27 368.50,195.00 L 364.50 194.50 L 364.21 185.75 C363.99,179.18 364.24,176.96 365.21,176.85 C369.11,176.41 377.86,176.31 380.17,176.69 ZM 193.88 238.06 C187.85,241.14 181.22,240.67 175.40,236.75 C172.75,234.96 169.80,232.15 168.84,230.50 L 167.11 227.50 L 185.55 227.50 C195.70,227.50 204.00,227.82 204.00,228.22 C204.00,229.85 197.41,236.26 193.88,238.06 ZM 416.82 201.72 C416.13,202.55 413.15,203.00 408.36,203.00 L 400.96 203.00 L 401.50 184.50 L 409.25 184.21 C413.51,184.05 417.05,184.27 417.12,184.71 C417.85,189.59 417.66,200.71 416.82,201.72 ZM 346.00 305.00 L 346.00 320.00 L 330.00 320.00 L 330.00 305.00 L 346.00 305.00 ZM 294.42 324.09 C292.81,325.78 289.36,328.69 286.75,330.58 L 282.00 334.00 L 282.00 323.50 C282.00,314.16 282.19,313.00 283.75,313.02 C286.46,313.06 293.29,316.48 295.42,318.88 C297.33,321.02 297.32,321.06 294.42,324.09 ZM 417.80 147.91 C417.56,150.01 416.90,150.56 414.34,150.81 C411.93,151.04 411.02,150.65 410.56,149.20 C409.73,146.57 410.80,144.20 413.14,143.46 C415.84,142.60 418.16,144.81 417.80,147.91 ZM 389.17 144.43 C389.86,143.49 390.88,142.72 392.13,142.32 C391.89,142.49 391.67,142.72 391.50,143.00 C391.16,143.55 391.30,144.00 391.80,144.00 C392.31,144.00 392.51,145.12 392.24,146.50 C391.62,149.77 390.00,149.73 390.00,146.44 C390.00,145.13 389.65,144.32 389.17,144.43 ZM 129.91 453.26 C128.95,447.00 127.32,439.25 125.67,432.66 C126.78,436.69 127.87,440.95 128.64,444.50 C129.22,447.11 129.63,449.90 129.91,453.26 ZM 409.49 148.62 C409.10,147.54 409.00,146.45 409.31,145.62 C409.63,144.79 411.04,143.36 412.45,142.44 L 412.54 142.38 C410.10,144.00 409.11,146.44 409.49,148.62 ZM 112.38 450.00 C113.49,449.53 114.19,447.83 115.14,443.69 C114.08,448.56 113.59,449.67 112.82,449.93 C112.68,449.97 112.54,449.99 112.38,450.00 ZM 395.55 142.20 C397.98,142.88 400.00,145.28 400.00,147.77 C400.00,145.32 397.79,143.06 395.55,142.20 ZM 390.22 151.44 C388.91,150.53 388.25,149.29 388.13,148.02 C388.41,149.34 389.14,150.69 390.22,151.44 ZM 97.68 204.08 C98.22,204.27 98.77,204.45 99.33,204.62 C100.34,204.93 101.08,205.36 101.81,206.28 C101.08,205.37 100.34,204.96 99.33,204.66 C98.91,204.53 98.34,204.33 97.68,204.08 ZM 105.83 329.30 C106.17,328.84 106.50,328.41 106.84,328.00 C113.83,319.42 116.61,317.72 138.61,308.49 C116.58,317.73 113.83,319.42 106.79,328.06 C106.47,328.44 106.15,328.86 105.83,329.30 ZM 413.24 152.91 C413.17,152.88 413.10,152.86 413.03,152.82 C413.12,152.86 413.22,152.90 413.32,152.94 C413.29,152.93 413.27,152.92 413.24,152.91 Z" fill="rgb(240,114,47)"/>
<path d="M 198.50 498.93 C193.55,497.89 186.80,496.59 183.50,496.03 C180.20,495.48 175.25,494.55 172.50,493.96 C169.75,493.37 165.48,492.52 163.00,492.07 C160.52,491.62 155.12,490.56 151.00,489.71 C146.88,488.86 140.56,487.62 136.96,486.94 L 130.41 485.72 L 130.41 469.11 C130.40,457.01 129.92,450.33 128.64,444.50 C126.52,434.79 122.11,419.80 121.06,418.70 C120.64,418.26 119.30,422.99 118.07,429.20 C113.42,452.71 114.25,451.15 107.57,449.02 C104.36,448.00 90.83,443.88 78.00,440.03 C73.88,438.79 70.10,437.40 69.61,436.94 C68.30,435.73 70.28,426.71 78.05,398.50 C87.06,365.76 98.10,338.72 106.84,328.00 C113.83,319.42 116.61,317.72 138.61,308.49 C153.63,302.20 159.18,297.39 162.01,288.24 C163.14,284.59 164.33,278.37 164.67,274.43 L 165.27 267.27 L 161.39 266.56 C155.20,265.41 141.23,258.41 133.46,252.57 C121.22,243.35 111.42,229.90 105.39,214.00 C102.65,206.78 101.74,205.37 99.33,204.62 C89.34,201.53 83.65,196.85 79.92,188.64 C77.62,183.57 77.45,175.25 79.55,170.22 C82.80,162.42 90.66,157.11 96.91,158.48 C99.58,159.07 99.90,158.82 101.04,155.31 C104.53,144.54 115.72,134.87 128.55,131.53 C131.79,130.69 143.53,129.31 154.64,128.48 C180.58,126.53 191.11,123.85 206.62,115.26 C212.91,111.77 223.52,101.55 226.87,95.74 C228.81,92.38 230.05,91.06 230.36,92.01 C230.63,92.83 231.59,95.86 232.50,98.74 C235.18,107.22 242.76,117.67 253.77,128.05 C259.34,133.29 264.36,138.81 264.92,140.30 C266.36,144.08 269.97,169.26 270.10,176.50 C270.22,182.49 270.22,182.49 271.05,178.30 C271.50,176.00 272.34,169.98 272.90,164.92 C273.47,159.87 274.15,155.51 274.43,155.23 C275.56,154.11 281.19,157.49 284.91,161.52 C288.68,165.61 292.00,173.50 292.00,178.36 C292.00,183.49 288.02,192.13 283.24,197.39 C278.80,202.26 275.46,204.30 270.82,204.95 C267.03,205.48 266.83,205.70 264.62,212.00 C256.05,236.38 237.54,255.39 213.83,264.15 L 204.79 267.50 L 205.33 275.58 C206.38,291.04 210.99,298.69 223.06,304.97 L 231.00 309.10 L 231.00 380.55 L 231.00 452.00 L 347.44 452.00 C421.32,452.00 464.10,452.35 464.48,452.97 C464.81,453.50 464.77,459.82 464.39,467.02 L 463.70 480.10 L 460.10 481.80 C456.79,483.36 448.70,483.50 360.28,483.55 C307.36,483.58 263.78,483.89 263.43,484.24 C263.08,484.59 263.74,487.71 264.90,491.19 C266.75,496.72 267.47,497.70 270.75,499.15 C274.33,500.73 273.01,500.81 241.00,500.81 C211.99,500.82 206.29,500.56 198.50,498.93 ZM 193.88 238.06 C197.41,236.26 204.00,229.85 204.00,228.22 C204.00,227.82 195.70,227.50 185.55,227.50 L 167.11 227.50 L 168.84 230.50 C169.80,232.15 172.75,234.96 175.40,236.75 C181.22,240.67 187.85,241.14 193.88,238.06 ZM 148.29 178.98 C151.94,176.12 153.38,171.14 152.03,166.10 C150.30,159.70 144.84,157.30 138.52,160.17 C136.33,161.17 135.52,161.02 132.98,159.14 C129.64,156.67 128.90,157.70 132.00,160.50 C135.73,163.88 134.21,166.14 129.68,163.94 C127.90,163.07 128.00,163.34 130.23,165.37 C131.83,166.84 133.36,169.66 133.93,172.19 C135.68,180.01 142.74,183.35 148.29,178.98 ZM 230.46 180.38 C232.39,179.64 236.00,172.92 236.00,170.07 C236.00,168.83 237.19,167.44 239.09,166.45 C240.79,165.57 241.96,164.62 241.68,164.35 C241.40,164.07 240.26,164.32 239.15,164.92 C234.62,167.35 233.17,164.43 237.50,161.59 C238.88,160.69 240.00,159.50 240.00,158.95 C240.00,158.39 238.73,158.88 237.18,160.03 C234.47,162.03 234.24,162.04 231.38,160.41 C226.98,157.88 221.48,159.16 218.96,163.30 C213.30,172.57 221.01,184.00 230.46,180.38 ZM 126.50 144.98 C131.73,141.49 136.27,140.78 145.13,142.08 C152.16,143.11 153.37,143.06 154.75,141.68 C156.86,139.57 155.09,137.40 150.14,136.02 C141.00,133.48 129.60,135.96 125.62,141.35 C121.01,147.60 121.23,148.51 126.50,144.98 ZM 247.00 146.20 C247.00,144.60 239.40,138.05 235.78,136.55 C228.57,133.54 214.50,135.42 214.50,139.39 C214.50,142.71 217.28,143.55 223.83,142.20 C230.68,140.78 237.70,141.84 242.53,145.03 C245.72,147.13 247.00,147.47 247.00,146.20 ZM 251.67 441.33 C251.30,440.97 251.00,427.02 251.00,410.33 L 251.00 380.00 L 279.50 380.00 L 308.00 380.00 L 308.00 411.00 L 308.00 442.00 L 280.17 442.00 C264.86,442.00 252.03,441.70 251.67,441.33 ZM 304.77 410.75 L 305.03 385.00 L 280.52 385.00 L 256.00 385.00 L 256.00 411.02 L 256.00 437.04 L 280.25 436.77 L 304.50 436.50 L 304.77 410.75 ZM 315.67 441.33 C315.30,440.97 315.00,427.02 315.00,410.33 L 315.00 380.00 L 345.50 380.00 L 376.00 380.00 L 376.00 411.00 L 376.00 442.00 L 346.17 442.00 C329.76,442.00 316.03,441.70 315.67,441.33 ZM 351.00 415.00 C351.00,414.38 345.83,414.00 337.50,414.00 C329.17,414.00 324.00,414.38 324.00,415.00 C324.00,415.62 329.17,416.00 337.50,416.00 C345.83,416.00 351.00,415.62 351.00,415.00 ZM 364.31 407.15 C365.30,407.07 365.84,406.55 365.50,406.00 C365.12,405.39 356.99,405.00 344.44,405.00 C326.47,405.00 322.71,405.39 324.42,407.08 C324.80,407.46 359.98,407.52 364.31,407.15 ZM 365.46 398.07 C365.77,397.56 365.54,396.83 364.93,396.46 C363.31,395.45 323.93,397.07 324.57,398.12 C325.31,399.30 364.72,399.26 365.46,398.07 ZM 383.67 441.33 C383.30,440.97 383.00,427.02 383.00,410.33 L 383.00 380.00 L 413.50 380.00 L 444.00 380.00 L 444.00 411.00 L 444.00 442.00 L 414.17 442.00 C397.76,442.00 384.03,441.70 383.67,441.33 ZM 418.00 415.00 C418.00,414.39 413.15,414.00 405.44,414.00 C397.32,414.00 393.10,414.35 393.50,415.00 C393.86,415.58 399.18,416.00 406.06,416.00 C413.35,416.00 418.00,415.61 418.00,415.00 ZM 434.00 406.50 C434.00,405.22 431.11,405.00 414.00,405.00 C401.73,405.00 394.00,405.38 394.00,405.97 C394.00,406.53 399.56,407.07 407.25,407.25 C414.54,407.42 423.54,407.66 427.25,407.78 C432.68,407.96 434.00,407.71 434.00,406.50 ZM 433.75 397.25 C434.07,396.29 430.66,396.00 418.83,396.01 C410.40,396.01 401.02,396.33 398.00,396.71 C388.44,397.92 396.60,398.80 415.92,398.64 C428.86,398.54 433.44,398.18 433.75,397.25 ZM 251.67 369.33 C251.30,368.97 251.00,352.09 251.00,331.83 L 251.00 295.00 L 347.50 295.00 L 444.00 295.00 L 444.00 332.50 L 444.00 370.00 L 348.17 370.00 C295.46,370.00 252.03,369.70 251.67,369.33 ZM 289.35 351.35 C293.84,349.08 295.95,347.02 298.11,342.79 C300.25,338.59 300.78,328.00 298.85,328.00 C298.22,328.00 293.93,330.06 289.32,332.57 L 280.94 337.14 L 276.22 333.29 C273.62,331.17 269.55,328.13 267.18,326.53 C261.88,322.97 261.03,323.79 261.04,332.50 C261.05,342.85 265.18,348.90 274.71,352.51 C279.03,354.15 284.72,353.70 289.35,351.35 ZM 294.42 324.09 C297.32,321.06 297.33,321.02 295.42,318.88 C293.29,316.48 286.46,313.06 283.75,313.02 C282.19,313.00 282.00,314.16 282.00,323.50 L 282.00 334.00 L 286.75 330.58 C289.36,328.69 292.81,325.78 294.42,324.09 ZM 327.00 312.50 L 327.00 305.00 L 319.00 305.00 L 311.00 305.00 L 311.00 312.50 L 311.00 320.00 L 319.00 320.00 L 327.00 320.00 L 327.00 312.50 ZM 346.00 312.50 L 346.00 305.00 L 338.00 305.00 L 330.00 305.00 L 330.00 312.50 L 330.00 320.00 L 338.00 320.00 L 346.00 320.00 L 346.00 312.50 ZM 432.39 316.42 C432.73,315.55 433.00,313.30 433.00,311.42 L 433.00 308.00 L 394.50 308.00 L 356.00 308.00 L 356.00 313.00 L 356.00 318.00 L 393.89 318.00 C427.52,318.00 431.85,317.82 432.39,316.42 ZM 398.90 201.25 C397.86,198.55 398.33,184.90 399.52,182.97 C399.85,182.44 405.04,182.00 411.06,182.00 L 422.00 182.00 L 422.00 193.00 L 422.00 204.00 L 410.98 204.00 L 399.95 204.00 L 398.90 201.25 ZM 416.82 201.72 C417.66,200.71 417.85,189.59 417.12,184.71 C417.05,184.27 413.51,184.05 409.25,184.21 L 401.50 184.50 L 401.23 193.75 L 400.96 203.00 L 408.36 203.00 C413.15,203.00 416.13,202.55 416.82,201.72 ZM 362.67 196.33 C362.30,195.97 362.00,191.23 362.00,185.81 C362.00,176.15 362.05,175.93 364.57,174.98 C365.98,174.44 370.67,174.00 374.99,174.00 C385.41,174.00 386.00,174.62 386.00,185.49 C386.00,190.08 385.73,194.55 385.39,195.42 C384.89,196.72 382.92,197.00 374.06,197.00 C368.16,197.00 363.03,196.70 362.67,196.33 ZM 382.72 185.98 L 382.84 177.12 L 380.17 176.69 C377.86,176.31 369.11,176.41 365.21,176.85 C364.24,176.96 363.99,179.18 364.21,185.75 L 364.50 194.50 L 368.50 195.00 C370.70,195.27 374.77,195.35 377.55,195.17 L 382.59 194.84 L 382.72 185.98 ZM 413.32 152.94 C408.45,151.10 408.05,145.33 412.58,142.36 C414.79,140.91 415.21,140.91 417.42,142.36 C420.43,144.33 421.45,147.29 420.03,149.94 C418.53,152.74 415.90,153.91 413.32,152.94 ZM 417.80 147.91 C418.16,144.81 415.84,142.60 413.14,143.46 C410.80,144.20 409.73,146.57 410.56,149.20 C411.02,150.65 411.93,151.04 414.34,150.81 C416.90,150.56 417.56,150.01 417.80,147.91 ZM 390.22 151.44 C387.94,149.85 387.20,145.61 389.00,144.50 C389.57,144.15 390.00,144.99 390.00,146.44 C390.00,149.73 391.62,149.77 392.24,146.50 C392.51,145.12 392.31,144.00 391.80,144.00 C391.30,144.00 391.16,143.55 391.50,143.00 C393.43,139.87 400.00,143.56 400.00,147.77 C400.00,150.02 396.58,153.00 394.00,153.00 C393.14,153.00 391.44,152.30 390.22,151.44 ZM 136.42 168.54 C134.88,167.40 134.72,166.75 135.61,165.31 C137.14,162.81 140.43,162.98 140.80,165.59 C141.24,168.69 138.82,170.32 136.42,168.54 ZM 228.15 167.68 C226.28,165.42 227.85,162.84 230.88,163.20 C232.93,163.43 233.50,164.05 233.50,166.00 C233.50,168.91 230.06,169.99 228.15,167.68 Z" fill="rgb(217,182,155)"/>
<path d="M 198.50 498.93 C193.55,497.89 186.80,496.59 183.50,496.03 C180.20,495.48 175.25,494.55 172.50,493.96 C169.75,493.37 165.48,492.52 163.00,492.07 C160.52,491.62 155.12,490.56 151.00,489.71 C146.88,488.86 140.56,487.62 136.96,486.94 L 130.41 485.72 L 130.41 469.11 C130.40,457.01 129.92,450.33 128.64,444.50 C126.52,434.79 122.11,419.80 121.06,418.70 C120.64,418.26 119.30,422.99 118.07,429.20 C113.42,452.71 114.25,451.15 107.57,449.02 C104.36,448.00 90.83,443.88 78.00,440.03 C73.88,438.79 70.10,437.40 69.61,436.94 C68.30,435.73 70.28,426.71 78.05,398.50 C89.83,355.72 101.90,329.91 114.75,320.03 C118.59,317.08 135.88,309.11 138.61,309.03 C139.22,309.01 141.31,311.59 143.27,314.75 C145.22,317.91 149.63,323.32 153.08,326.76 C163.45,337.13 172.31,341.00 185.66,341.00 C203.13,341.00 218.46,331.42 226.47,315.48 L 229.97 308.54 L 230.23 392.75 L 230.50 476.96 L 233.27 479.73 C235.94,482.40 236.49,482.52 248.77,483.00 L 261.50 483.50 L 263.30 487.19 C264.30,489.22 265.20,492.13 265.30,493.66 C265.49,496.34 265.35,496.43 261.50,495.98 C251.74,494.84 246.62,495.45 242.27,498.27 C238.11,500.95 237.78,501.00 222.77,500.91 C211.95,500.84 204.88,500.27 198.50,498.93 ZM 251.67 441.33 C251.30,440.97 251.00,427.02 251.00,410.33 L 251.00 380.00 L 279.50 380.00 L 308.00 380.00 L 308.00 411.00 L 308.00 442.00 L 280.17 442.00 C264.86,442.00 252.03,441.70 251.67,441.33 ZM 304.77 410.75 L 305.03 385.00 L 280.52 385.00 L 256.00 385.00 L 256.00 411.02 L 256.00 437.04 L 280.25 436.77 L 304.50 436.50 L 304.77 410.75 ZM 315.67 441.33 C315.30,440.97 315.00,427.02 315.00,410.33 L 315.00 380.00 L 345.50 380.00 L 376.00 380.00 L 376.00 411.00 L 376.00 442.00 L 346.17 442.00 C329.76,442.00 316.03,441.70 315.67,441.33 ZM 351.00 415.00 C351.00,414.38 345.83,414.00 337.50,414.00 C329.17,414.00 324.00,414.38 324.00,415.00 C324.00,415.62 329.17,416.00 337.50,416.00 C345.83,416.00 351.00,415.62 351.00,415.00 ZM 364.31 407.15 C365.30,407.07 365.84,406.55 365.50,406.00 C365.12,405.39 356.99,405.00 344.44,405.00 C326.47,405.00 322.71,405.39 324.42,407.08 C324.80,407.46 359.98,407.52 364.31,407.15 ZM 365.46 398.07 C365.77,397.56 365.54,396.83 364.93,396.46 C363.31,395.45 323.93,397.07 324.57,398.12 C325.31,399.30 364.72,399.26 365.46,398.07 ZM 383.67 441.33 C383.30,440.97 383.00,427.02 383.00,410.33 L 383.00 380.00 L 413.50 380.00 L 444.00 380.00 L 444.00 411.00 L 444.00 442.00 L 414.17 442.00 C397.76,442.00 384.03,441.70 383.67,441.33 ZM 418.00 415.00 C418.00,414.39 413.15,414.00 405.44,414.00 C397.32,414.00 393.10,414.35 393.50,415.00 C393.86,415.58 399.18,416.00 406.06,416.00 C413.35,416.00 418.00,415.61 418.00,415.00 ZM 434.00 406.50 C434.00,405.22 431.11,405.00 414.00,405.00 C401.73,405.00 394.00,405.38 394.00,405.97 C394.00,406.53 399.56,407.07 407.25,407.25 C414.54,407.42 423.54,407.66 427.25,407.78 C432.68,407.96 434.00,407.71 434.00,406.50 ZM 433.75 397.25 C434.07,396.29 430.66,396.00 418.83,396.01 C410.40,396.01 401.02,396.33 398.00,396.71 C388.44,397.92 396.60,398.80 415.92,398.64 C428.86,398.54 433.44,398.18 433.75,397.25 ZM 251.67 369.33 C251.30,368.97 251.00,352.09 251.00,331.83 L 251.00 295.00 L 347.50 295.00 L 444.00 295.00 L 444.00 332.50 L 444.00 370.00 L 348.17 370.00 C295.46,370.00 252.03,369.70 251.67,369.33 ZM 289.35 351.35 C293.84,349.08 295.95,347.02 298.11,342.79 C300.05,338.97 300.81,328.00 299.12,328.00 C298.64,328.00 294.71,329.59 290.37,331.53 L 282.50 335.06 L 290.00 328.05 L 297.50 321.04 L 294.29 318.07 C290.14,314.23 283.26,312.01 281.90,314.07 C281.38,314.86 281.08,320.11 281.23,325.75 C281.48,335.42 281.00,338.04 279.61,334.42 C279.27,333.55 279.00,328.38 279.00,322.94 L 279.00 313.05 L 275.75 313.67 C266.71,315.39 261.78,321.14 261.17,330.66 C260.45,341.93 264.62,348.71 274.59,352.47 C279.03,354.15 284.67,353.72 289.35,351.35 ZM 327.00 312.50 L 327.00 305.00 L 319.00 305.00 L 311.00 305.00 L 311.00 312.50 L 311.00 320.00 L 319.00 320.00 L 327.00 320.00 L 327.00 312.50 ZM 346.00 312.50 L 346.00 305.00 L 338.00 305.00 L 330.00 305.00 L 330.00 312.50 L 330.00 320.00 L 338.00 320.00 L 346.00 320.00 L 346.00 312.50 ZM 432.39 316.42 C432.73,315.55 433.00,313.30 433.00,311.42 L 433.00 308.00 L 394.50 308.00 L 356.00 308.00 L 356.00 313.00 L 356.00 318.00 L 393.89 318.00 C427.52,318.00 431.85,317.82 432.39,316.42 ZM 136.42 168.54 C134.88,167.40 134.72,166.75 135.61,165.31 C137.14,162.81 140.43,162.98 140.80,165.59 C141.24,168.69 138.82,170.32 136.42,168.54 ZM 228.15 167.68 C226.28,165.42 227.85,162.84 230.88,163.20 C232.93,163.43 233.50,164.05 233.50,166.00 C233.50,168.91 230.06,169.99 228.15,167.68 Z" fill="rgb(249,250,250)"/>
</g>
</svg>